# AST/ASF file generated using VICON BodyLanguage
# -----------------------------------------------
:version 1.10
:name VICON
:units
  mass 1.0
  length 0.45
  angle deg
:documentation
   .ast/.asf automatically generated from VICON data using
   VICON BodyBuilder and BodyLanguage model FoxedUp or BRILLIANT.MOD
:root
   order TX TY TZ RX RY RZ
   axis XYZ
   position 0 0 0  
   orientation 0 0 0 
:bonedata
  begin
     id 1 
     name lhipjoint
     direction 0.560651 -0.75055 0.34978 
     length 2.44936 
     axis 0 0 0  XYZ
  end
  begin
     id 2 
     name lfemur
     direction 0.34202 -0.939693 0  
     length 7.42139  
     axis 0 0 20  XYZ
    dof rx ry rz
    limits (-160.0 20.0)
           (-70.0 70.0)
           (-60.0 70.0)
  end
  begin
     id 3 
     name ltibia
     direction 0.34202 -0.939693 0   
     length 7.75674   
     axis 0 0 20   XYZ
    dof rx
    limits (-10.0 170.0)
  end
  begin
     id 4 
     name lfoot
     direction 0.0925879 -0.254383 0.962661   
     length 2.38688   
     axis -90 7.62852e-016 20   XYZ
    dof rx rz
    limits (-45.0 90.0)
           (-70.0 20.0)
  end
  begin
     id 5 
     name ltoes
     direction 1.53567e-011 -4.21973e-011 1   
     length 1.19228   
     axis -90 7.62852e-016 20   XYZ
    dof rx
    limits (-90.0 20.0)
  end
  begin
     id 6 
     name rhipjoint
     direction -0.540087 -0.762838 0.355506   
     length 2.4099  
     axis 0 0 0  XYZ 
  end
  begin
     id 7 
     name rfemur
     direction -0.34202 -0.939693 0   
     length 7.70794   
     axis 0 0 -20   XYZ
    dof rx ry rz
    limits (-160.0 20.0)
           (-70.0 70.0)
           (-70.0 60.0)
  end
  begin
     id 8 
     name rtibia
     direction -0.34202 -0.939693 0   
     length 7.66106   
     axis 0 0 -20   XYZ
    dof rx
    limits (-10.0 170.0)
 end
 begin
     id 9 
     name rfoot
     direction -0.0830975 -0.228308 0.970036   
     length 2.4989  
     axis -90 -7.62852e-016 -20   XYZ
    dof rx rz
    limits (-45.0 90.0)
           (-20.0 70.0)
  end
  begin
     id 10 
     name rtoes
     direction -1.53517e-011 -4.21842e-011 1   
     length 1.2498   
     axis -90 -7.62852e-016 -20   XYZ
    dof rx
    limits (-90.0 20.0)
  end
  begin
     id 11 
     name lowerback
     direction 0.0266356 0.99402 -0.105896   
     length 2.1545   
     axis 0 0 0   XYZ
    dof rx ry rz
    limits (-20.0 45.0)
           (-30.0 30.0)
           (-30.0 30.0)
  end
  begin
     id 12 
     name upperback
     direction 0.0130547 0.999192 0.0380027   
     length 2.1434   
     axis 0 0 0   XYZ
    dof rx ry rz
    limits (-20.0 45.0)
           (-30.0 30.0)
           (-30.0 30.0)
  end
  begin
     id 13 
     name thorax
     direction 0.000590299 0.996288 0.0860764   
     length 2.19049   
     axis 0 0 0   XYZ
    dof rx ry rz
    limits (-20.0 45.0)
           (-30.0 30.0)
           (-30.0 30.0)
  end
  begin
     id 14 
     name lowerneck
     direction -0.0432125 0.978219 0.203028   
     length 1.62441   
     axis 0 0 0   XYZ
    dof rx ry rz
    limits (-20.0 45.0)
           (-30.0 30.0)
           (-30.0 30.0)
  end
  begin
     id 15 
     name upperneck
     direction -0.0192309 0.991699 -0.127138   
     length 1.66666   
     axis 0 0 0   XYZ
    dof rx ry rz
    limits (-20.0 45.0)
           (-30.0 30.0)
           (-30.0 30.0)
  end
  begin
     id 16
     name head
     direction -0.00434499 0.997882 -0.0649107  
     length 1.67142  
     axis 0 0 0   XYZ
    dof rx ry rz
    limits (-20.0 45.0)
           (-30.0 30.0)
           (-30.0 30.0)
  end
  begin
     id 17 
     name lclavicle
     direction 0.970351 0.240904 -0.0196058  
     length 4.04862  
     axis 0 0 0   XYZ
    dof ry rz
    limits (-20.0 10.0)
           (0.0 20.0)
  end
  begin
     id 18 
     name lhumerus
     direction 1 -4.4896e-011 -1.40911e-018   
     length 5.58345   
     axis 180 -30 -90   XYZ
    dof rx ry rz
    limits (-60.0 90.0)
           (-90.0 90.0)
           (-90.0 90.0)
  end
  begin
     id 19
     name lradius
     direction 1 -4.48968e-011 5.88912e-028   
     length 3.71087   
     axis 180 -30 -90   XYZ
    dof rx
    limits (-10.0 170.0)
  end
  begin
     id 20
     name lwrist
     direction 1 -4.48955e-011 -8.83775e-028   
     length 1.85544   
     axis 5.52448e-016 90 90   XYZ
    dof ry
    limits (-180.0 0.0)
 end
  begin
     id 21 
     name lhand
     direction 1 -4.49035e-011 -1.76755e-027   
     length 0.562322   
     axis 1.12785e-015 90 90   XYZ
    dof rx rz
    limits (-90.0 90.0)
           (-45.0 45.0)
  end
  begin
     id 22 
     name lfingers
     direction 1 -4.48824e-011 -3.5351e-027   
     length 0.453359   
     axis 2.2557e-015 90 90   XYZ
    dof rx
    limits (0.0 90.0)
  end
  begin
     id 23
     name lthumb
     direction 0.707107 -6.34888e-011 0.707107   
     length 0.650935   
     axis -90 45 2.85299e-015   XYZ
    dof rx rz
    limits (-45.0 45.0)
           (-45.0 45.0)
  end
  begin
     id 24 
     name rclavicle
     direction -0.96165 0.268562 -0.0557131   
     length 4.05446  
     axis 0 0 0   XYZ 
    dof ry rz
    limits (-10.0 20.0)
           (-20.0 0.0)
  end
  begin
     id 25 
     name rhumerus
     direction -1 -4.48957e-011 -3.36329e-027  
     length 5.20357   
     axis 180 30 90   XYZ
    dof rx ry rz
    limits (-90.0 60.0)
           (-90.0 90.0)
           (-90.0 90.0)
  end
  begin
     id 26 
     name rradius
     direction -1 -4.48974e-011 4.51441e-027   
     length 3.64937   
     axis 180 30 90   XYZ
    dof rx
    limits (-10.0 170.0)
  end
  begin
     id 27 
     name rwrist
     direction -1 -4.4896e-011 -8.83775e-028   
     length 1.82468   
     axis 5.52448e-016 -90 -90   XYZ
    dof ry
    limits (-180.0 0.0)
  end
  begin
     id 28
     name rhand
     direction -1 -4.48996e-011 -1.76755e-027   
     length 0.617996   
     axis 1.12785e-015 -90 -90   XYZ
    dof rx rz
    limits (-90.0 90.0)
           (-45.0 45.0)
  end
  begin
     id 29
     name rfingers
     direction -1 -4.48957e-011 -3.5351e-027   
     length 0.498244   
     axis 2.2557e-015 -90 -90   XYZ
    dof rx
    limits (0.0 90.0)
  end
  begin
     id 30
     name rthumb
     direction -0.707107 -6.34931e-011 0.707107   
     length 0.715382   
     axis -90 -45 -2.85299e-015   XYZ
    dof rx rz
    limits (-45.0 45.0)
           (-45.0 45.0)
  end
:hierarchy
  begin
    root lhipjoint rhipjoint lowerback
    lhipjoint lfemur
    lfemur ltibia
    ltibia lfoot
    lfoot ltoes
    rhipjoint rfemur
    rfemur rtibia
    rtibia rfoot
    rfoot rtoes
    lowerback upperback
    upperback thorax
    thorax lowerneck lclavicle rclavicle
    lowerneck upperneck
    upperneck head
    lclavicle lhumerus
    lhumerus lradius
    lradius lwrist
    lwrist lhand lthumb
    lhand lfingers
    rclavicle rhumerus
    rhumerus rradius
    rradius rwrist
    rwrist rhand rthumb
    rhand rfingers
  end

#!OML:ASF H:\ManfredETheater\Project 1\Capture day 2\Session 1\Male1.ASF
:FULLY-SPECIFIED
:DEGREES
97
root -0.452294 18.5915 13.5534 2.88071 7.18854 -3.57832
lowerback 2.67524 0.211155 2.30024
upperback -4.44138 0.565285 2.66219
thorax -6.12124 0.24554 1.43607
lowerneck -22.7864 -2.18737 -3.12081
upperneck 20.3951 -1.36545 -2.31521
head 10.3018 -1.16828 -0.52356
rclavicle -9.64106e-015 -1.15295e-014
rhumerus -41.772 -5.30061 -78.7543
rradius 43.5209
rwrist 2.41181
rhand -32.4768 -5.38271
rfingers 7.12502
rthumb -5.70913 -35.2858
lclavicle -9.64106e-015 -1.15295e-014
lhumerus -43.6927 0.613331 88.6335
lradius 60.5785
lwrist -4.20788
lhand -20.3365 -1.60497
lfingers 7.12502
lthumb 6.01494 28.2896
rfemur -10.7893 1.30351 26.4941
rtibia 32.1186
rfoot -5.52688 -4.0839
rtoes -2.00685
lfemur -7.61282 -5.17865 -18.6342
ltibia 34.7168
lfoot -7.48744 -3.59117
ltoes -7.34233
98
root -0.450381 18.601 13.6542 3.16179 7.02341 -3.50249
lowerback 2.63382 0.192716 2.20013
upperback -4.42143 0.534497 2.70332
thorax -6.07717 0.236189 1.5373
lowerneck -22.7109 -2.0937 -3.04714
upperneck 20.3067 -1.25936 -2.34338
head 10.2549 -1.11558 -0.527473
rclavicle 5.41688e-015 -1.78906e-014
rhumerus -41.377 -5.25565 -78.816
rradius 43.5121
rwrist 2.29801
rhand -32.3831 -5.49001
rfingers 7.12502
rthumb -5.61864 -35.3955
lclavicle 5.41688e-015 -1.78906e-014
lhumerus -43.7483 0.410491 88.7127
lradius 59.9668
lwrist -4.51952
lhand -19.9136 -1.80565
lfingers 7.12502
lthumb 6.42327 28.0769
rfemur -10.7819 1.35548 26.4345
rtibia 32.1785
rfoot -5.52813 -3.973
rtoes -2.04722
lfemur -7.5123 -5.03356 -18.6146
ltibia 34.5546
lfoot -7.05217 -3.89805
ltoes -8.66239
99
root -0.44635 18.6103 13.7542 3.45775 6.86903 -3.38294
lowerback 2.59853 0.162822 2.06263
upperback -4.42122 0.487169 2.74114
thorax -6.05734 0.220118 1.65749
lowerneck -22.6085 -2.0029 -2.88813
upperneck 20.2137 -1.1518 -2.51508
head 10.2003 -1.07313 -0.595967
rclavicle 1.2921e-015 -3.22031e-014
rhumerus -41.0104 -5.18208 -78.8877
rradius 43.5269
rwrist 2.10898
rhand -32.349 -5.41452
rfingers 7.12502
rthumb -5.58572 -35.3209
lclavicle 1.2921e-015 -3.22031e-014
lhumerus -43.8394 0.246684 88.7964
lradius 59.3743
lwrist -4.82559
lhand -19.5379 -1.90533
lfingers 7.12502
lthumb 6.78592 27.9659
rfemur -10.7777 1.3342 26.3093
rtibia 32.2233
rfoot -5.52021 -3.79953
rtoes -2.34016
lfemur -7.44597 -4.91992 -18.6604
ltibia 34.4128
lfoot -6.61788 -4.13879
ltoes -9.4359
100
root -0.442389 18.6197 13.8535 3.76387 6.72693 -3.22957
lowerback 2.61696 0.121987 1.93017
upperback -4.46555 0.426466 2.72812
thorax -6.11449 0.195606 1.72342
lowerneck -22.5491 -1.90554 -2.77926
upperneck 20.2134 -1.05151 -2.53575
head 10.1882 -1.02064 -0.605155
rclavicle 8.10048e-015 1.63003e-014
rhumerus -40.7331 -5.13162 -79.0259
rradius 43.5789
rwrist 1.98261
rhand -32.4121 -5.24396
rfingers 7.12502
rthumb -5.64665 -35.1487
lclavicle 8.10048e-015 1.63003e-014
lhumerus -43.9688 0.0727439 88.8052
lradius 58.7587
lwrist -5.00617
lhand -19.4244 -2.17047
lfingers 7.12502
lthumb 6.89551 27.6972
rfemur -10.7872 1.38398 26.149
rtibia 32.2662
rfoot -5.55516 -3.69359
rtoes -2.41597
lfemur -7.3831 -4.83805 -18.7472
ltibia 34.2746
lfoot -6.33595 -4.55977
ltoes -10.2429
101
root -0.437755 18.6276 13.9521 4.04724 6.59708 -3.16862
lowerback 2.58286 0.101253 1.88517
upperback -4.44541 0.395684 2.75951
thorax -6.07358 0.183314 1.78354
lowerneck -22.5016 -1.8199 -2.69818
upperneck 20.1164 -0.94862 -2.60093
head 10.1438 -0.973313 -0.624409
rclavicle 1.28962e-014 6.75868e-015
rhumerus -40.3895 -5.09664 -79.1206
rradius 43.6562
rwrist 2.05559
rhand -32.6857 -5.19949
rfingers 7.12502
rthumb -5.91074 -35.097
lclavicle 1.28962e-014 6.75868e-015
lhumerus -44.0121 -0.0982913 88.8736
lradius 58.208
lwrist -5.19572
lhand -19.1953 -2.37789
lfingers 7.12502
lthumb 7.1166 27.4825
rfemur -10.7642 1.40662 26.0926
rtibia 32.2869
rfoot -5.55076 -3.54172
rtoes -2.37461
lfemur -7.3305 -4.78901 -18.7481
ltibia 34.1742
lfoot -6.02809 -4.80411
ltoes -11.2881
